<?xml version="1.0" standalone="no"?><!DOCTYPE svg PUBLIC "-//W3C//DTD SVG 1.1//EN" "http://www.w3.org/Graphics/SVG/1.1/DTD/svg11.dtd"><svg t="1515157302591" class="icon" style="" viewBox="0 0 1024 1024" version="1.1" xmlns="http://www.w3.org/2000/svg" p-id="1296" xmlns:xlink="http://www.w3.org/1999/xlink" width="200" height="200"><defs><style type="text/css"></style></defs><path d="M511.294695 0C234.068157 0.511488-6.842727 236.307492 0.318106 513.534029c7.672321 291.548204 213.290528 509.953613 516.091469 510.465101 287.967787 0.511488 509.442125-219.939873 506.373197-513.534029-2.55744-293.082668-217.893921-496.654923-511.488077-510.465101z m2.55744 957.50568C281.636548 971.827347 64.765603 756.490866 65.788579 511.999565c0.511488-238.353444 207.152671-444.483139 444.994628-444.994627 239.887908-1.022976 449.086532 210.733088 448.575043 448.063556 0 235.796004-210.2216 456.758853-445.506115 442.437186z" fill="#0B0015" p-id="1297"></path><path d="M694.918914 237.841956c-11.764226 0-21.993987 6.137857-28.131844 15.344642L608.988917 340.651059l-88.998925 132.9869-92.067854-138.10178-53.19476-80.815117c-0.511488-1.022976-1.022976-2.045952-2.045952-3.068928l-0.511488-1.022976c-6.137857-7.672321-15.85613-12.787202-26.59738-12.787202-18.413571 0-33.246725 14.833154-33.246725 33.246725 0 6.137857 1.534464 12.275714 4.603392 16.879106 0.511488 0.511488 1.022976 1.534464 1.534465 2.045953l128.894995 194.876957H376.261842c-18.413571 0-33.246725 14.833154-33.246725 33.758213 0 18.413571 14.833154 33.246725 33.246725 33.246725H486.231779v42.964999H376.261842c-18.413571 0-33.246725 14.833154-33.246725 33.758213 0 18.413571 14.833154 33.246725 33.246725 33.246725H486.231779v115.596305c0 2.55744 0 5.626369 0.511488 7.672321 0 18.413571 14.833154 33.758213 33.246725 33.758214s33.246725-14.833154 33.246725-33.758214c0.511488-2.55744 0.511488-5.114881 0.511488-7.672321v-115.596305h109.458449c18.413571 0 33.246725-14.833154 33.246725-33.246725s-14.833154-33.758213-33.246725-33.758213h-109.458449V552.918611h109.458449c18.413571 0 33.246725-14.833154 33.246725-33.246725s-14.833154-33.758213-33.246725-33.758213h-71.096843l128.894995-194.876957c0.511488-0.511488 1.022976-1.534464 1.534465-2.55744 3.068928-5.114881 4.603393-10.74125 4.603392-16.879107 1.022976-18.925059-13.810178-33.758213-32.223749-33.758213z" fill="#0B0015" p-id="1298"></path></svg>